<?xml version="1.0" encoding="utf-8"?>
<!-- created with bpmn-js / http://bpmn.io -->
<!DOCTYPE svg PUBLIC "-//W3C//DTD SVG 1.1//EN" "http://www.w3.org/Graphics/SVG/1.1/DTD/svg11.dtd">
<svg xmlns="http://www.w3.org/2000/svg" xmlns:xlink="http://www.w3.org/1999/xlink" width="1530" height="875" viewBox="35 -136 1530 875" version="1.1"><defs><marker id="sequenceflow-end-white-black-1y2ahkjoxmb0l5ggsv4t0bcs2" viewBox="0 0 20 20" refX="11" refY="10" markerWidth="10" markerHeight="10" orient="auto"><path d="M 1 5 L 11 10 L 1 15 Z" style="fill: black; stroke-width: 1px; stroke-linecap: round; stroke-dasharray: 10000, 1; stroke: black;"/></marker></defs><g class="djs-group"><g class="djs-element djs-connection" data-element-id="SequenceFlow_0yhnvgb" style="display: block;"><g class="djs-visual"><path d="m  1403,35L1523,35 " style="fill: none; stroke-width: 2px; stroke: black; stroke-linejoin: round; marker-end: url('#sequenceflow-end-white-black-1y2ahkjoxmb0l5ggsv4t0bcs2');"/></g><polyline points="1403,35 1523,35 " class="djs-hit" style="fill: none; stroke-opacity: 0; stroke: white; stroke-width: 15px;"/><rect x="1397" y="29" width="132" height="12" class="djs-outline" style="fill: none;"/></g></g><g class="djs-group"><g class="djs-element djs-connection" data-element-id="SequenceFlow_16u1e56" style="display: block;"><g class="djs-visual"><path d="m  469,156L647,156 " style="fill: none; stroke-width: 2px; stroke: black; stroke-linejoin: round; marker-end: url('#sequenceflow-end-white-black-1y2ahkjoxmb0l5ggsv4t0bcs2');"/></g><polyline points="469,156 647,156 " class="djs-hit" style="fill: none; stroke-opacity: 0; stroke: white; stroke-width: 15px;"/><rect x="463" y="150" width="190" height="12" class="djs-outline" style="fill: none;"/></g></g><g class="djs-group"><g class="djs-element djs-connection" data-element-id="SequenceFlow_1rjc0wv" style="display: block;"><g class="djs-visual"><path d="m  378,156L419,156 " style="fill: none; stroke-width: 2px; stroke: black; stroke-linejoin: round; marker-end: url('#sequenceflow-end-white-black-1y2ahkjoxmb0l5ggsv4t0bcs2');"/></g><polyline points="378,156 419,156 " class="djs-hit" style="fill: none; stroke-opacity: 0; stroke: white; stroke-width: 15px;"/><rect x="372" y="150" width="53" height="12" class="djs-outline" style="fill: none;"/></g></g><g class="djs-group"><g class="djs-element djs-connection" data-element-id="SequenceFlow_0e6wdns" style="display: block;"><g class="djs-visual"><path d="m  1378,10L1378,-130 L353,-130 L353,131 " style="fill: none; stroke-width: 2px; stroke: black; stroke-linejoin: round; marker-end: url('#sequenceflow-end-white-black-1y2ahkjoxmb0l5ggsv4t0bcs2');"/></g><polyline points="1378,10 1378,-130 353,-130 353,131 " class="djs-hit" style="fill: none; stroke-opacity: 0; stroke: white; stroke-width: 15px;"/><rect x="347" y="-136" width="1037" height="273" class="djs-outline" style="fill: none;"/></g></g><g class="djs-group"><g class="djs-element djs-connection" data-element-id="SequenceFlow_1wkldwa" style="display: block;"><g class="djs-visual"><path d="m  245,156L328,156 " style="fill: none; stroke-width: 2px; stroke: black; stroke-linejoin: round; marker-end: url('#sequenceflow-end-white-black-1y2ahkjoxmb0l5ggsv4t0bcs2');"/></g><polyline points="245,156 328,156 " class="djs-hit" style="fill: none; stroke-opacity: 0; stroke: white; stroke-width: 15px;"/><rect x="239" y="150" width="95" height="12" class="djs-outline" style="fill: none;"/></g></g><g class="djs-group"><g class="djs-element djs-connection" data-element-id="SequenceFlow_0vy81pl" style="display: block;"><g class="djs-visual"><path d="m  77,156L143,156 " style="fill: none; stroke-width: 2px; stroke: black; stroke-linejoin: round; marker-end: url('#sequenceflow-end-white-black-1y2ahkjoxmb0l5ggsv4t0bcs2');"/></g><polyline points="77,156 143,156 " class="djs-hit" style="fill: none; stroke-opacity: 0; stroke: white; stroke-width: 15px;"/><rect x="71" y="150" width="78" height="12" class="djs-outline" style="fill: none;"/></g></g><g class="djs-group"><g class="djs-element djs-connection" data-element-id="SequenceFlow_1th8j9a" style="display: block;"><g class="djs-visual"><path d="m  749,156L881,156 L881,237 " style="fill: none; stroke-width: 2px; stroke: black; stroke-linejoin: round; marker-end: url('#sequenceflow-end-white-black-1y2ahkjoxmb0l5ggsv4t0bcs2');"/></g><polyline points="749,156 881,156 881,237 " class="djs-hit" style="fill: none; stroke-opacity: 0; stroke: white; stroke-width: 15px;"/><rect x="743" y="150" width="144" height="93" class="djs-outline" style="fill: none;"/></g></g><g class="djs-group"><g class="djs-element djs-connection" data-element-id="SequenceFlow_1fgu0z7" style="display: block;"><g class="djs-visual"><path d="m  444,181L444,360 L647,360 " style="fill: none; stroke-width: 2px; stroke: black; stroke-linejoin: round; marker-end: url('#sequenceflow-end-white-black-1y2ahkjoxmb0l5ggsv4t0bcs2');"/></g><polyline points="444,181 444,360 647,360 " class="djs-hit" style="fill: none; stroke-opacity: 0; stroke: white; stroke-width: 15px;"/><rect x="438" y="175" width="215" height="191" class="djs-outline" style="fill: none;"/></g></g><g class="djs-group"><g class="djs-element djs-connection" data-element-id="SequenceFlow_1ozg9fj" style="display: block;"><g class="djs-visual"><path d="m  444,181L444,558 L466,558 " style="fill: none; stroke-width: 2px; stroke: black; stroke-linejoin: round; marker-end: url('#sequenceflow-end-white-black-1y2ahkjoxmb0l5ggsv4t0bcs2');"/></g><polyline points="444,181 444,558 466,558 " class="djs-hit" style="fill: none; stroke-opacity: 0; stroke: white; stroke-width: 15px;"/><rect x="438" y="175" width="34" height="389" class="djs-outline" style="fill: none;"/></g></g><g class="djs-group"><g class="djs-element djs-connection" data-element-id="SequenceFlow_053fpnt" style="display: block;"><g class="djs-visual"><path d="m  516,558L647,558 " style="fill: none; stroke-width: 2px; stroke: black; stroke-linejoin: round; marker-end: url('#sequenceflow-end-white-black-1y2ahkjoxmb0l5ggsv4t0bcs2');"/></g><polyline points="516,558 647,558 " class="djs-hit" style="fill: none; stroke-opacity: 0; stroke: white; stroke-width: 15px;"/><rect x="510" y="552" width="143" height="12" class="djs-outline" style="fill: none;"/></g></g><g class="djs-group"><g class="djs-element djs-connection" data-element-id="SequenceFlow_0p60dm8" style="display: block;"><g class="djs-visual"><path d="m  749,558L856,558 " style="fill: none; stroke-width: 2px; stroke: black; stroke-linejoin: round; marker-end: url('#sequenceflow-end-white-black-1y2ahkjoxmb0l5ggsv4t0bcs2');"/></g><polyline points="749,558 856,558 " class="djs-hit" style="fill: none; stroke-opacity: 0; stroke: white; stroke-width: 15px;"/><rect x="743" y="552" width="119" height="12" class="djs-outline" style="fill: none;"/></g></g><g class="djs-group"><g class="djs-element djs-connection" data-element-id="SequenceFlow_1wmmaf8" style="display: block;"><g class="djs-visual"><path d="m  881,533L881,287 " style="fill: none; stroke-width: 2px; stroke: black; stroke-linejoin: round; marker-end: url('#sequenceflow-end-white-black-1y2ahkjoxmb0l5ggsv4t0bcs2');"/></g><polyline points="881,533 881,287 " class="djs-hit" style="fill: none; stroke-opacity: 0; stroke: white; stroke-width: 15px;"/><rect x="875" y="281" width="12" height="258" class="djs-outline" style="fill: none;"/></g></g><g class="djs-group"><g class="djs-element djs-connection" data-element-id="SequenceFlow_1ly2tzn" style="display: block;"><g class="djs-visual"><path d="m  749,360L881,360 L881,287 " style="fill: none; stroke-width: 2px; stroke: black; stroke-linejoin: round; marker-end: url('#sequenceflow-end-white-black-1y2ahkjoxmb0l5ggsv4t0bcs2');"/></g><polyline points="749,360 881,360 881,287 " class="djs-hit" style="fill: none; stroke-opacity: 0; stroke: white; stroke-width: 15px;"/><rect x="743" y="281" width="144" height="85" class="djs-outline" style="fill: none;"/></g></g><g class="djs-group"><g class="djs-element djs-connection" data-element-id="SequenceFlow_12funyn" style="display: block;"><g class="djs-visual"><path d="m  906,262L986,262 " style="fill: none; stroke-width: 2px; stroke: black; stroke-linejoin: round; marker-end: url('#sequenceflow-end-white-black-1y2ahkjoxmb0l5ggsv4t0bcs2');"/></g><polyline points="906,262 986,262 " class="djs-hit" style="fill: none; stroke-opacity: 0; stroke: white; stroke-width: 15px;"/><rect x="900" y="256" width="92" height="12" class="djs-outline" style="fill: none;"/></g></g><g class="djs-group"><g class="djs-element djs-connection" data-element-id="SequenceFlow_11jdcud" style="display: block;"><g class="djs-visual"><path d="m  1088,262L1185,262 " style="fill: none; stroke-width: 2px; stroke: black; stroke-linejoin: round; marker-end: url('#sequenceflow-end-white-black-1y2ahkjoxmb0l5ggsv4t0bcs2');"/></g><polyline points="1088,262 1185,262 " class="djs-hit" style="fill: none; stroke-opacity: 0; stroke: white; stroke-width: 15px;"/><rect x="1082" y="256" width="109" height="12" class="djs-outline" style="fill: none;"/></g></g><g class="djs-group"><g class="djs-element djs-connection" data-element-id="SequenceFlow_0hnd5xc" style="display: block;"><g class="djs-visual"><path d="m  1287,262L1378,262 L1378,60 " style="fill: none; stroke-width: 2px; stroke: black; stroke-linejoin: round; marker-end: url('#sequenceflow-end-white-black-1y2ahkjoxmb0l5ggsv4t0bcs2');"/></g><polyline points="1287,262 1378,262 1378,60 " class="djs-hit" style="fill: none; stroke-opacity: 0; stroke: white; stroke-width: 15px;"/><rect x="1281" y="54" width="103" height="214" class="djs-outline" style="fill: none;"/></g></g><g class="djs-group"><g class="djs-element djs-connection" data-element-id="SequenceFlow_0m94vin" style="display: block;"><g class="djs-visual"><path d="m  881,583L881,733 L491,733 L491,583 " style="fill: none; stroke-width: 2px; stroke: black; stroke-linejoin: round; marker-end: url('#sequenceflow-end-white-black-1y2ahkjoxmb0l5ggsv4t0bcs2');"/></g><polyline points="881,583 881,733 491,733 491,583 " class="djs-hit" style="fill: none; stroke-opacity: 0; stroke: white; stroke-width: 15px;"/><rect x="485" y="577" width="402" height="162" class="djs-outline" style="fill: none;"/></g></g><g class="djs-group"><g class="djs-element djs-shape" data-element-id="StartEvent_1gj1c1y" style="display: block;" transform="matrix(1 0 0 1 41 138)"><g class="djs-visual"><circle cx="18" cy="18" r="18" style="stroke: black; stroke-width: 2px; fill: white; fill-opacity: 0.95;"/></g><rect x="0" y="0" width="36" height="36" class="djs-hit" style="fill: none; stroke-opacity: 0; stroke: white; stroke-width: 15px;"/><rect x="-6" y="-6" width="48" height="48" class="djs-outline" style="fill: none;"/></g></g><g class="djs-group"><g class="djs-element djs-shape" data-element-id="ChoreographyTask_0vj94g3" style="display: block;" transform="matrix(1 0 0 1 144 116)"><g class="djs-visual"><g><path d="M10,0a10,10,0,0,0,-10,10l0,60a10,10,0,0,0,10,10l80,0a10,10,0,0,0,10,-10l0,-60a10,10,0,0,0,-10,-10z" style="fill: white; stroke: black; stroke-width: 2px;"/><text lineHeight="1.2" class="djs-label" transform="translate(0, 20)" style="font-family: Arial, sans-serif; font-size: 12px; font-weight: normal; fill: black;"><tspan x="32.3828125" y="23.6">Set up</tspan></text></g></g><rect x="0" y="0" width="100" height="80" class="djs-hit" style="fill: none; stroke-opacity: 0; stroke: white; stroke-width: 15px;"/><rect x="-6" y="-6" width="112" height="92" class="djs-outline" style="fill: none;"/></g><g class="djs-children"><g class="djs-group"><g class="djs-element djs-shape" data-element-id="Participant_1x6c2sa_ChoreographyTask_0vj94g3" style="display: block;" transform="matrix(1 0 0 1 144 116)"><g class="djs-visual"><g><path d="M0,20l100,0l0,-10a10,10,0,0,0,-10,-10l-80,0a10,10,0,0,0,-10,10z" style="stroke: rgb(0, 0, 0); stroke-width: 2px; fill: white; fill-opacity: 1;"/><text lineHeight="1.2" class="djs-label" transform="translate(0, 0)" style="font-family: Arial, sans-serif; font-size: 12px; font-weight: normal; fill: black;"><tspan x="36.9296875" y="13.6">User</tspan></text></g></g><rect x="0" y="0" width="100" height="20" class="djs-hit" style="fill: none; stroke-opacity: 0; stroke: white; stroke-width: 15px;"/><rect x="-6" y="-6" width="112" height="32" class="djs-outline" style="fill: none;"/></g><g class="djs-children"><g class="djs-group"><g class="djs-element djs-shape" data-element-id="Message_0guv0gv" style="display: block;" transform="matrix(1 0 0 1 176.5 71)"><g class="djs-visual"><g><path d="M17.5,25l0,20" style="stroke: black; stroke-width: 2px; stroke-dasharray: 0, 4; stroke-linecap: round;"/><path d="M0,0l0,25l35,0l0,-25zM0,0l17.5,15l17.5,-15" style="stroke: rgb(0, 0, 0); stroke-width: 2px; fill: white; fill-opacity: 1;"/><text lineHeight="1.2" class="djs-label" transform="translate(-32.5, -25)" style="font-family: Arial, sans-serif; font-size: 12px; font-weight: normal; fill: black;"><tspan x="16.6484375" y="1.700000000000001">initialize(uint </tspan><tspan x="5.640625" y="16.1">initialThresholdT</tspan><tspan x="36.328125" y="30.5">emp)</tspan></text></g></g><rect x="0" y="0" width="35" height="25" class="djs-hit" style="fill: none; stroke-opacity: 0; stroke: white; stroke-width: 15px;"/><rect x="-6" y="-6" width="47" height="37" class="djs-outline" style="fill: none;"/></g></g></g></g><g class="djs-group"><g class="djs-element djs-shape" data-element-id="Participant_0yoytyi_ChoreographyTask_0vj94g3" style="display: block;" transform="matrix(1 0 0 1 144 176)"><g class="djs-visual"><g><path d="M100,0l-100,0l0,10a10,10,0,0,0,10,10l80,0a10,10,0,0,0,10,-10z" style="stroke: rgb(0, 0, 0); stroke-width: 2px; fill: lightgray; fill-opacity: 1;"/><text lineHeight="1.2" class="djs-label" transform="translate(0, 0)" style="font-family: Arial, sans-serif; font-size: 12px; font-weight: normal; fill: black;"><tspan x="19.3203125" y="13.6">Thermostat</tspan></text></g></g><rect x="0" y="0" width="100" height="20" class="djs-hit" style="fill: none; stroke-opacity: 0; stroke: white; stroke-width: 15px;"/><rect x="-6" y="-6" width="112" height="32" class="djs-outline" style="fill: none;"/></g><g class="djs-children"><g class="djs-group"><g class="djs-element djs-shape" data-element-id="Message_016o0mu" style="display: none;" transform="matrix(1 0 0 1 176.5 216)"><g class="djs-visual"><g><path d="M17.5,-20l0,20" style="stroke: black; stroke-width: 2px; stroke-dasharray: 0, 4; stroke-linecap: round;"/><path d="M0,0l0,25l35,0l0,-25zM0,0l17.5,15l17.5,-15" style="stroke: rgb(0, 0, 0); stroke-width: 2px; fill: lightgray; fill-opacity: 1;"/></g></g><rect x="0" y="0" width="35" height="25" class="djs-hit" style="fill: none; stroke-opacity: 0; stroke: white; stroke-width: 15px;"/><rect x="-6" y="-6" width="47" height="37" class="djs-outline" style="fill: none;"/></g></g></g></g></g></g><g class="djs-group"><g class="djs-element djs-shape" data-element-id="ExclusiveGateway_0lslz44" style="display: block;" transform="matrix(1 0 0 1 328 131)"><g class="djs-visual"><polygon points="25,0 50,25 25,50 0,25" style="stroke: black; stroke-width: 2px; fill: white; fill-opacity: 0.95;"/><path d="m 16,15 7.42857142857143,9.714285714285715 -7.42857142857143,9.714285714285715 3.428571428571429,0 5.714285714285715,-7.464228571428572 5.714285714285715,7.464228571428572 3.428571428571429,0 -7.42857142857143,-9.714285714285715 7.42857142857143,-9.714285714285715 -3.428571428571429,0 -5.714285714285715,7.464228571428572 -5.714285714285715,-7.464228571428572 -3.428571428571429,0 z" style="fill: black; stroke-width: 1px; stroke: black;"/></g><rect x="0" y="0" width="50" height="50" class="djs-hit" style="fill: none; stroke-opacity: 0; stroke: white; stroke-width: 15px;"/><rect x="-6" y="-6" width="62" height="62" class="djs-outline" style="fill: none;"/></g></g><g class="djs-group"><g class="djs-element djs-shape" data-element-id="ParallelGateway_0gdn0ur" style="display: block;" transform="matrix(1 0 0 1 419 131)"><g class="djs-visual"><polygon points="25,0 50,25 25,50 0,25" style="stroke: black; stroke-width: 2px; fill: white; fill-opacity: 0.95;"/><path d="m 23,10 0,12.5 -12.5,0 0,5 12.5,0 0,12.5 5,0 0,-12.5 12.5,0 0,-5 -12.5,0 0,-12.5 -5,0 z" style="fill: black; stroke-width: 1px; stroke: black;"/></g><rect x="0" y="0" width="50" height="50" class="djs-hit" style="fill: none; stroke-opacity: 0; stroke: white; stroke-width: 15px;"/><rect x="-6" y="-6" width="62" height="62" class="djs-outline" style="fill: none;"/></g></g><g class="djs-group"><g class="djs-element djs-shape" data-element-id="EndEvent_1h6qaji" style="display: block;" transform="matrix(1 0 0 1 1523 17)"><g class="djs-visual"><circle cx="18" cy="18" r="18" style="stroke: black; stroke-width: 4px; fill: white; fill-opacity: 0.95;"/></g><rect x="0" y="0" width="36" height="36" class="djs-hit" style="fill: none; stroke-opacity: 0; stroke: white; stroke-width: 15px;"/><rect x="-6" y="-6" width="48" height="48" class="djs-outline" style="fill: none;"/></g></g><g class="djs-group"><g class="djs-element djs-shape" data-element-id="ExclusiveGateway_08bf2n6" style="display: block;" transform="matrix(1 0 0 1 1353 10)"><g class="djs-visual"><polygon points="25,0 50,25 25,50 0,25" style="stroke: black; stroke-width: 2px; fill: white; fill-opacity: 0.95;"/><path d="m 16,15 7.42857142857143,9.714285714285715 -7.42857142857143,9.714285714285715 3.428571428571429,0 5.714285714285715,-7.464228571428572 5.714285714285715,7.464228571428572 3.428571428571429,0 -7.42857142857143,-9.714285714285715 7.42857142857143,-9.714285714285715 -3.428571428571429,0 -5.714285714285715,7.464228571428572 -5.714285714285715,-7.464228571428572 -3.428571428571429,0 z" style="fill: black; stroke-width: 1px; stroke: black;"/></g><rect x="0" y="0" width="50" height="50" class="djs-hit" style="fill: none; stroke-opacity: 0; stroke: white; stroke-width: 15px;"/><rect x="-6" y="-6" width="62" height="62" class="djs-outline" style="fill: none;"/></g></g><g class="djs-group"><g class="djs-element djs-shape" data-element-id="SequenceFlow_0yhnvgb_label" style="display: block;" transform="matrix(1 0 0 1 1410 16)"><g class="djs-visual"><text lineHeight="1.2" class="djs-label" style="font-family: Arial, sans-serif; font-size: 11px; font-weight: normal; fill: black;"><tspan x="0" y="9.899999999999999">shutDown == true</tspan></text></g><rect x="0" y="0" width="88" height="14" class="djs-hit" style="fill: none; stroke-opacity: 0; stroke: white; stroke-width: 15px;"/><rect x="-6" y="-6" width="100" height="26" class="djs-outline" style="fill: none;"/></g></g><g class="djs-group"><g class="djs-element djs-shape" data-element-id="ChoreographyTask_1wpkaqh" style="display: block;" transform="matrix(1 0 0 1 1186 222)"><g class="djs-visual"><g><path d="M10,0a10,10,0,0,0,-10,10l0,60a10,10,0,0,0,10,10l80,0a10,10,0,0,0,10,-10l0,-60a10,10,0,0,0,-10,-10z" style="fill: white; stroke: black; stroke-width: 2px;"/><text lineHeight="1.2" class="djs-label" transform="translate(0, 20)" style="font-family: Arial, sans-serif; font-size: 12px; font-weight: normal; fill: black;"><tspan x="14.109375" y="23.6">Heater status</tspan></text></g></g><rect x="0" y="0" width="100" height="80" class="djs-hit" style="fill: none; stroke-opacity: 0; stroke: white; stroke-width: 15px;"/><rect x="-6" y="-6" width="112" height="92" class="djs-outline" style="fill: none;"/></g><g class="djs-children"><g class="djs-group"><g class="djs-element djs-shape" data-element-id="ParticipantBand_0j8bowe" style="display: block;" transform="matrix(1 0 0 1 1186 222)"><g class="djs-visual"><g><path d="M0,20l100,0l0,-10a10,10,0,0,0,-10,-10l-80,0a10,10,0,0,0,-10,10z" style="stroke: rgb(0, 0, 0); stroke-width: 2px; fill: white; fill-opacity: 1;"/><text lineHeight="1.2" class="djs-label" transform="translate(0, 0)" style="font-family: Arial, sans-serif; font-size: 12px; font-weight: normal; fill: black;"><tspan x="31.5859375" y="13.6">Heater</tspan></text></g></g><rect x="0" y="0" width="100" height="20" class="djs-hit" style="fill: none; stroke-opacity: 0; stroke: white; stroke-width: 15px;"/><rect x="-6" y="-6" width="112" height="32" class="djs-outline" style="fill: none;"/></g><g class="djs-children"><g class="djs-group"><g class="djs-element djs-shape" data-element-id="Message_04mtmp8" style="display: block;" transform="matrix(1 0 0 1 1218.5 177)"><g class="djs-visual"><g><path d="M17.5,25l0,20" style="stroke: black; stroke-width: 2px; stroke-dasharray: 0, 4; stroke-linecap: round;"/><path d="M0,0l0,25l35,0l0,-25zM0,0l17.5,15l17.5,-15" style="stroke: rgb(0, 0, 0); stroke-width: 2px; fill: white; fill-opacity: 1;"/><text lineHeight="1.2" class="djs-label" transform="translate(-32.5, -25)" style="font-family: Arial, sans-serif; font-size: 12px; font-weight: normal; fill: black;"><tspan x="3.3125" y="1.700000000000001">communicateStat</tspan><tspan x="26.9921875" y="16.1">us(string </tspan><tspan x="15.3125" y="30.5">currentState)</tspan></text></g></g><rect x="0" y="0" width="35" height="25" class="djs-hit" style="fill: none; stroke-opacity: 0; stroke: white; stroke-width: 15px;"/><rect x="-6" y="-6" width="47" height="37" class="djs-outline" style="fill: none;"/></g></g></g></g><g class="djs-group"><g class="djs-element djs-shape" data-element-id="ParticipantBand_12za7bn" style="display: block;" transform="matrix(1 0 0 1 1186 282)"><g class="djs-visual"><g><path d="M100,0l-100,0l0,10a10,10,0,0,0,10,10l80,0a10,10,0,0,0,10,-10z" style="stroke: rgb(0, 0, 0); stroke-width: 2px; fill: lightgray; fill-opacity: 1;"/><text lineHeight="1.2" class="djs-label" transform="translate(0, 0)" style="font-family: Arial, sans-serif; font-size: 12px; font-weight: normal; fill: black;"><tspan x="19.3203125" y="13.6">Thermostat</tspan></text></g></g><rect x="0" y="0" width="100" height="20" class="djs-hit" style="fill: none; stroke-opacity: 0; stroke: white; stroke-width: 15px;"/><rect x="-6" y="-6" width="112" height="32" class="djs-outline" style="fill: none;"/></g></g></g></g><g class="djs-group"><g class="djs-element djs-shape" data-element-id="ChoreographyTask_0or9vj2" style="display: block;" transform="matrix(1 0 0 1 987 222)"><g class="djs-visual"><g><path d="M10,0a10,10,0,0,0,-10,10l0,60a10,10,0,0,0,10,10l80,0a10,10,0,0,0,10,-10l0,-60a10,10,0,0,0,-10,-10z" style="fill: white; stroke: black; stroke-width: 2px;"/><text lineHeight="1.2" class="djs-label" transform="translate(0, 20)" style="font-family: Arial, sans-serif; font-size: 12px; font-weight: normal; fill: black;"><tspan x="15.9765625" y="23.6">Start heating</tspan></text></g></g><rect x="0" y="0" width="100" height="80" class="djs-hit" style="fill: none; stroke-opacity: 0; stroke: white; stroke-width: 15px;"/><rect x="-6" y="-6" width="112" height="92" class="djs-outline" style="fill: none;"/></g><g class="djs-children"><g class="djs-group"><g class="djs-element djs-shape" data-element-id="ParticipantBand_0y1b9lq" style="display: block;" transform="matrix(1 0 0 1 987 222)"><g class="djs-visual"><g><path d="M0,20l100,0l0,-10a10,10,0,0,0,-10,-10l-80,0a10,10,0,0,0,-10,10z" style="stroke: rgb(0, 0, 0); stroke-width: 2px; fill: white; fill-opacity: 1;"/><text lineHeight="1.2" class="djs-label" transform="translate(0, 0)" style="font-family: Arial, sans-serif; font-size: 12px; font-weight: normal; fill: black;"><tspan x="19.3203125" y="13.6">Thermostat</tspan></text></g></g><rect x="0" y="0" width="100" height="20" class="djs-hit" style="fill: none; stroke-opacity: 0; stroke: white; stroke-width: 15px;"/><rect x="-6" y="-6" width="112" height="32" class="djs-outline" style="fill: none;"/></g><g class="djs-children"><g class="djs-group"><g class="djs-element djs-shape" data-element-id="Message_17r8u48" style="display: block;" transform="matrix(1 0 0 1 1019.5 177)"><g class="djs-visual"><g><path d="M17.5,25l0,20" style="stroke: black; stroke-width: 2px; stroke-dasharray: 0, 4; stroke-linecap: round;"/><path d="M0,0l0,25l35,0l0,-25zM0,0l17.5,15l17.5,-15" style="stroke: rgb(0, 0, 0); stroke-width: 2px; fill: white; fill-opacity: 1;"/><text lineHeight="1.2" class="djs-label" transform="translate(-32.5, -25)" style="font-family: Arial, sans-serif; font-size: 12px; font-weight: normal; fill: black;"><tspan x="7.96875" y="8.9">setHeating(bool </tspan><tspan x="15.6484375" y="23.299999999999997">startHeating)</tspan></text></g></g><rect x="0" y="0" width="35" height="25" class="djs-hit" style="fill: none; stroke-opacity: 0; stroke: white; stroke-width: 15px;"/><rect x="-6" y="-6" width="47" height="37" class="djs-outline" style="fill: none;"/></g></g></g></g><g class="djs-group"><g class="djs-element djs-shape" data-element-id="ParticipantBand_13d49sk" style="display: block;" transform="matrix(1 0 0 1 987 282)"><g class="djs-visual"><g><path d="M100,0l-100,0l0,10a10,10,0,0,0,10,10l80,0a10,10,0,0,0,10,-10z" style="stroke: rgb(0, 0, 0); stroke-width: 2px; fill: lightgray; fill-opacity: 1;"/><text lineHeight="1.2" class="djs-label" transform="translate(0, 0)" style="font-family: Arial, sans-serif; font-size: 12px; font-weight: normal; fill: black;"><tspan x="31.5859375" y="13.6">Heater</tspan></text></g></g><rect x="0" y="0" width="100" height="20" class="djs-hit" style="fill: none; stroke-opacity: 0; stroke: white; stroke-width: 15px;"/><rect x="-6" y="-6" width="112" height="32" class="djs-outline" style="fill: none;"/></g></g></g></g><g class="djs-group"><g class="djs-element djs-shape" data-element-id="ParallelGateway_1djqsn1" style="display: block;" transform="matrix(1 0 0 1 856 237)"><g class="djs-visual"><polygon points="25,0 50,25 25,50 0,25" style="stroke: black; stroke-width: 2px; fill: white; fill-opacity: 0.95;"/><path d="m 23,10 0,12.5 -12.5,0 0,5 12.5,0 0,12.5 5,0 0,-12.5 12.5,0 0,-5 -12.5,0 0,-12.5 -5,0 z" style="fill: black; stroke-width: 1px; stroke: black;"/></g><rect x="0" y="0" width="50" height="50" class="djs-hit" style="fill: none; stroke-opacity: 0; stroke: white; stroke-width: 15px;"/><rect x="-6" y="-6" width="62" height="62" class="djs-outline" style="fill: none;"/></g></g><g class="djs-group"><g class="djs-element djs-shape" data-element-id="ExclusiveGateway_1wd1mbz" style="display: block;" transform="matrix(1 0 0 1 856 533)"><g class="djs-visual"><polygon points="25,0 50,25 25,50 0,25" style="stroke: black; stroke-width: 2px; fill: white; fill-opacity: 0.95;"/><path d="m 16,15 7.42857142857143,9.714285714285715 -7.42857142857143,9.714285714285715 3.428571428571429,0 5.714285714285715,-7.464228571428572 5.714285714285715,7.464228571428572 3.428571428571429,0 -7.42857142857143,-9.714285714285715 7.42857142857143,-9.714285714285715 -3.428571428571429,0 -5.714285714285715,7.464228571428572 -5.714285714285715,-7.464228571428572 -3.428571428571429,0 z" style="fill: black; stroke-width: 1px; stroke: black;"/></g><rect x="0" y="0" width="50" height="50" class="djs-hit" style="fill: none; stroke-opacity: 0; stroke: white; stroke-width: 15px;"/><rect x="-6" y="-6" width="62" height="62" class="djs-outline" style="fill: none;"/></g></g><g class="djs-group"><g class="djs-element djs-shape" data-element-id="ChoreographyTask_0v63fno" style="display: block;" transform="matrix(1 0 0 1 648 518)"><g class="djs-visual"><g><path d="M10,0a10,10,0,0,0,-10,10l0,60a10,10,0,0,0,10,10l80,0a10,10,0,0,0,10,-10l0,-60a10,10,0,0,0,-10,-10z" style="fill: white; stroke: black; stroke-width: 2px;"/><text lineHeight="1.2" class="djs-label" transform="translate(0, 20)" style="font-family: Arial, sans-serif; font-size: 12px; font-weight: normal; fill: black;"><tspan x="21.640625" y="23.6">Shut down</tspan></text></g></g><rect x="0" y="0" width="100" height="80" class="djs-hit" style="fill: none; stroke-opacity: 0; stroke: white; stroke-width: 15px;"/><rect x="-6" y="-6" width="112" height="92" class="djs-outline" style="fill: none;"/></g><g class="djs-children"><g class="djs-group"><g class="djs-element djs-shape" data-element-id="ParticipantBand_17vkdyu" style="display: block;" transform="matrix(1 0 0 1 648 518)"><g class="djs-visual"><g><path d="M0,20l100,0l0,-10a10,10,0,0,0,-10,-10l-80,0a10,10,0,0,0,-10,10z" style="stroke: rgb(0, 0, 0); stroke-width: 2px; fill: white; fill-opacity: 1;"/><text lineHeight="1.2" class="djs-label" transform="translate(0, 0)" style="font-family: Arial, sans-serif; font-size: 12px; font-weight: normal; fill: black;"><tspan x="36.9296875" y="13.6">User</tspan></text></g></g><rect x="0" y="0" width="100" height="20" class="djs-hit" style="fill: none; stroke-opacity: 0; stroke: white; stroke-width: 15px;"/><rect x="-6" y="-6" width="112" height="32" class="djs-outline" style="fill: none;"/></g><g class="djs-children"><g class="djs-group"><g class="djs-element djs-shape" data-element-id="Message_0x7sv2e" style="display: block;" transform="matrix(1 0 0 1 680.5 473)"><g class="djs-visual"><g><path d="M17.5,25l0,20" style="stroke: black; stroke-width: 2px; stroke-dasharray: 0, 4; stroke-linecap: round;"/><path d="M0,0l0,25l35,0l0,-25zM0,0l17.5,15l17.5,-15" style="stroke: rgb(0, 0, 0); stroke-width: 2px; fill: white; fill-opacity: 1;"/><text lineHeight="1.2" class="djs-label" transform="translate(-32.5, -25)" style="font-family: Arial, sans-serif; font-size: 12px; font-weight: normal; fill: black;"><tspan x="9.9765625" y="8.9">shutDown(bool </tspan><tspan x="21.3125" y="23.299999999999997">shutDown)</tspan></text></g></g><rect x="0" y="0" width="35" height="25" class="djs-hit" style="fill: none; stroke-opacity: 0; stroke: white; stroke-width: 15px;"/><rect x="-6" y="-6" width="47" height="37" class="djs-outline" style="fill: none;"/></g></g></g></g><g class="djs-group"><g class="djs-element djs-shape" data-element-id="ParticipantBand_1wmm9g9" style="display: block;" transform="matrix(1 0 0 1 648 578)"><g class="djs-visual"><g><path d="M100,0l-100,0l0,10a10,10,0,0,0,10,10l80,0a10,10,0,0,0,10,-10z" style="stroke: rgb(0, 0, 0); stroke-width: 2px; fill: lightgray; fill-opacity: 1;"/><text lineHeight="1.2" class="djs-label" transform="translate(0, 0)" style="font-family: Arial, sans-serif; font-size: 12px; font-weight: normal; fill: black;"><tspan x="19.3203125" y="13.6">Thermostat</tspan></text></g></g><rect x="0" y="0" width="100" height="20" class="djs-hit" style="fill: none; stroke-opacity: 0; stroke: white; stroke-width: 15px;"/><rect x="-6" y="-6" width="112" height="32" class="djs-outline" style="fill: none;"/></g></g></g></g><g class="djs-group"><g class="djs-element djs-shape" data-element-id="ExclusiveGateway_086nj7m" style="display: block;" transform="matrix(1 0 0 1 466 533)"><g class="djs-visual"><polygon points="25,0 50,25 25,50 0,25" style="stroke: black; stroke-width: 2px; fill: white; fill-opacity: 0.95;"/><path d="m 16,15 7.42857142857143,9.714285714285715 -7.42857142857143,9.714285714285715 3.428571428571429,0 5.714285714285715,-7.464228571428572 5.714285714285715,7.464228571428572 3.428571428571429,0 -7.42857142857143,-9.714285714285715 7.42857142857143,-9.714285714285715 -3.428571428571429,0 -5.714285714285715,7.464228571428572 -5.714285714285715,-7.464228571428572 -3.428571428571429,0 z" style="fill: black; stroke-width: 1px; stroke: black;"/></g><rect x="0" y="0" width="50" height="50" class="djs-hit" style="fill: none; stroke-opacity: 0; stroke: white; stroke-width: 15px;"/><rect x="-6" y="-6" width="62" height="62" class="djs-outline" style="fill: none;"/></g></g><g class="djs-group"><g class="djs-element djs-shape" data-element-id="SequenceFlow_0m94vin_label" style="display: block;" transform="matrix(1 0 0 1 652 700)"><g class="djs-visual"><text lineHeight="1.2" class="djs-label" style="font-family: Arial, sans-serif; font-size: 11px; font-weight: normal; fill: black;"><tspan x="0" y="9.899999999999999">shutDown == </tspan><tspan x="21.0546875" y="23.099999999999998">false</tspan></text></g><rect x="0" y="0" width="65" height="27" class="djs-hit" style="fill: none; stroke-opacity: 0; stroke: white; stroke-width: 15px;"/><rect x="-6" y="-6" width="77" height="39" class="djs-outline" style="fill: none;"/></g></g><g class="djs-group"><g class="djs-element djs-shape" data-element-id="ChoreographyTask_0ljwr6v" style="display: block;" transform="matrix(1 0 0 1 648 320)"><g class="djs-visual"><g><path d="M10,0a10,10,0,0,0,-10,10l0,60a10,10,0,0,0,10,10l80,0a10,10,0,0,0,10,-10l0,-60a10,10,0,0,0,-10,-10z" style="fill: white; stroke: black; stroke-width: 2px;"/><text lineHeight="1.2" class="djs-label" transform="translate(0, 20)" style="font-family: Arial, sans-serif; font-size: 12px; font-weight: normal; fill: black;"><tspan x="14.640625" y="23.6">Set threshold</tspan></text></g></g><rect x="0" y="0" width="100" height="80" class="djs-hit" style="fill: none; stroke-opacity: 0; stroke: white; stroke-width: 15px;"/><rect x="-6" y="-6" width="112" height="92" class="djs-outline" style="fill: none;"/></g><g class="djs-children"><g class="djs-group"><g class="djs-element djs-shape" data-element-id="ParticipantBand_1hlzdy6" style="display: block;" transform="matrix(1 0 0 1 648 320)"><g class="djs-visual"><g><path d="M0,20l100,0l0,-10a10,10,0,0,0,-10,-10l-80,0a10,10,0,0,0,-10,10z" style="stroke: rgb(0, 0, 0); stroke-width: 2px; fill: white; fill-opacity: 1;"/><text lineHeight="1.2" class="djs-label" transform="translate(0, 0)" style="font-family: Arial, sans-serif; font-size: 12px; font-weight: normal; fill: black;"><tspan x="36.9296875" y="13.6">User</tspan></text></g></g><rect x="0" y="0" width="100" height="20" class="djs-hit" style="fill: none; stroke-opacity: 0; stroke: white; stroke-width: 15px;"/><rect x="-6" y="-6" width="112" height="32" class="djs-outline" style="fill: none;"/></g><g class="djs-children"><g class="djs-group"><g class="djs-element djs-shape" data-element-id="Message_1ksm8jv" style="display: block;" transform="matrix(1 0 0 1 680.5 275)"><g class="djs-visual"><g><path d="M17.5,25l0,20" style="stroke: black; stroke-width: 2px; stroke-dasharray: 0, 4; stroke-linecap: round;"/><path d="M0,0l0,25l35,0l0,-25zM0,0l17.5,15l17.5,-15" style="stroke: rgb(0, 0, 0); stroke-width: 2px; fill: white; fill-opacity: 1;"/><text lineHeight="1.2" class="djs-label" transform="translate(-32.5, -25)" style="font-family: Arial, sans-serif; font-size: 12px; font-weight: normal; fill: black;"><tspan x="3.3046875" y="8.9">setThreshold(uint</tspan><tspan x="9.046875" y="23.299999999999997">thresholdTemp)</tspan></text></g></g><rect x="0" y="0" width="35" height="25" class="djs-hit" style="fill: none; stroke-opacity: 0; stroke: white; stroke-width: 15px;"/><rect x="-6" y="-6" width="47" height="37" class="djs-outline" style="fill: none;"/></g></g></g></g><g class="djs-group"><g class="djs-element djs-shape" data-element-id="ParticipantBand_1kvxwya" style="display: block;" transform="matrix(1 0 0 1 648 380)"><g class="djs-visual"><g><path d="M100,0l-100,0l0,10a10,10,0,0,0,10,10l80,0a10,10,0,0,0,10,-10z" style="stroke: rgb(0, 0, 0); stroke-width: 2px; fill: lightgray; fill-opacity: 1;"/><text lineHeight="1.2" class="djs-label" transform="translate(0, 0)" style="font-family: Arial, sans-serif; font-size: 12px; font-weight: normal; fill: black;"><tspan x="19.3203125" y="13.6">Thermostat</tspan></text></g></g><rect x="0" y="0" width="100" height="20" class="djs-hit" style="fill: none; stroke-opacity: 0; stroke: white; stroke-width: 15px;"/><rect x="-6" y="-6" width="112" height="32" class="djs-outline" style="fill: none;"/></g></g></g></g><g class="djs-group"><g class="djs-element djs-shape" data-element-id="ChoreographyTask_0t1mr04" style="display: block;" transform="matrix(1 0 0 1 648 116)"><g class="djs-visual"><g><path d="M10,0a10,10,0,0,0,-10,10l0,60a10,10,0,0,0,10,10l80,0a10,10,0,0,0,10,-10l0,-60a10,10,0,0,0,-10,-10z" style="fill: white; stroke: black; stroke-width: 2px;"/><text lineHeight="1.2" class="djs-label" transform="translate(0, 20)" style="font-family: Arial, sans-serif; font-size: 12px; font-weight: normal; fill: black;"><tspan x="12.71875" y="16.4">Communicate </tspan><tspan x="36.796875" y="30.799999999999997">temp</tspan></text></g></g><rect x="0" y="0" width="100" height="80" class="djs-hit" style="fill: none; stroke-opacity: 0; stroke: white; stroke-width: 15px;"/><rect x="-6" y="-6" width="112" height="92" class="djs-outline" style="fill: none;"/></g><g class="djs-children"><g class="djs-group"><g class="djs-element djs-shape" data-element-id="Participant_1x6c2sa_ChoreographyTask_0t1mr04" style="display: block;" transform="matrix(1 0 0 1 648 116)"><g class="djs-visual"><g><path d="M0,20l100,0l0,-10a10,10,0,0,0,-10,-10l-80,0a10,10,0,0,0,-10,10z" style="stroke: rgb(0, 0, 0); stroke-width: 2px; fill: white; fill-opacity: 1;"/><text lineHeight="1.2" class="djs-label" transform="translate(0, 0)" style="font-family: Arial, sans-serif; font-size: 12px; font-weight: normal; fill: black;"><tspan x="30.5859375" y="13.6">Sensor</tspan></text></g></g><rect x="0" y="0" width="100" height="20" class="djs-hit" style="fill: none; stroke-opacity: 0; stroke: white; stroke-width: 15px;"/><rect x="-6" y="-6" width="112" height="32" class="djs-outline" style="fill: none;"/></g><g class="djs-children"><g class="djs-group"><g class="djs-element djs-shape" data-element-id="Message_0x8b6aw" style="display: block;" transform="matrix(1 0 0 1 680.5 71)"><g class="djs-visual"><g><path d="M17.5,25l0,20" style="stroke: black; stroke-width: 2px; stroke-dasharray: 0, 4; stroke-linecap: round;"/><path d="M0,0l0,25l35,0l0,-25zM0,0l17.5,15l17.5,-15" style="stroke: rgb(0, 0, 0); stroke-width: 2px; fill: white; fill-opacity: 1;"/><text lineHeight="1.2" class="djs-label" transform="translate(-32.5, -25)" style="font-family: Arial, sans-serif; font-size: 12px; font-weight: normal; fill: black;"><tspan x="25.0625" y="8.9">temp(uint </tspan><tspan x="17.3125" y="23.299999999999997">actualTemp)</tspan></text></g></g><rect x="0" y="0" width="35" height="25" class="djs-hit" style="fill: none; stroke-opacity: 0; stroke: white; stroke-width: 15px;"/><rect x="-6" y="-6" width="47" height="37" class="djs-outline" style="fill: none;"/></g></g></g></g><g class="djs-group"><g class="djs-element djs-shape" data-element-id="Participant_0yoytyi_ChoreographyTask_0t1mr04" style="display: block;" transform="matrix(1 0 0 1 648 176)"><g class="djs-visual"><g><path d="M100,0l-100,0l0,10a10,10,0,0,0,10,10l80,0a10,10,0,0,0,10,-10z" style="stroke: rgb(0, 0, 0); stroke-width: 2px; fill: lightgray; fill-opacity: 1;"/><text lineHeight="1.2" class="djs-label" transform="translate(0, 0)" style="font-family: Arial, sans-serif; font-size: 12px; font-weight: normal; fill: black;"><tspan x="19.3203125" y="13.6">Thermostat</tspan></text></g></g><rect x="0" y="0" width="100" height="20" class="djs-hit" style="fill: none; stroke-opacity: 0; stroke: white; stroke-width: 15px;"/><rect x="-6" y="-6" width="112" height="32" class="djs-outline" style="fill: none;"/></g></g></g></g><g class="djs-group"><g class="djs-element djs-shape" data-element-id="SequenceFlow_1wmmaf8_label" style="display: block;" transform="matrix(1 0 0 1 894 435)"><g class="djs-visual"><text lineHeight="1.2" class="djs-label" style="font-family: Arial, sans-serif; font-size: 11px; font-weight: normal; fill: black;"><tspan x="0" y="9.899999999999999">shutDown == true</tspan></text></g><rect x="0" y="0" width="88" height="14" class="djs-hit" style="fill: none; stroke-opacity: 0; stroke: white; stroke-width: 15px;"/><rect x="-6" y="-6" width="100" height="26" class="djs-outline" style="fill: none;"/></g></g><g class="djs-group"><g class="djs-element djs-shape" data-element-id="SequenceFlow_0e6wdns_label" style="display: block;" transform="matrix(1 0 0 1 1025 -116)"><g class="djs-visual"><text lineHeight="1.2" class="djs-label" style="font-family: Arial, sans-serif; font-size: 11px; font-weight: normal; fill: black;"><tspan x="0" y="9.899999999999999">shutDown == </tspan><tspan x="21.0546875" y="23.099999999999998">false</tspan></text></g><rect x="0" y="0" width="65" height="27" class="djs-hit" style="fill: none; stroke-opacity: 0; stroke: white; stroke-width: 15px;"/><rect x="-6" y="-6" width="77" height="39" class="djs-outline" style="fill: none;"/></g></g><g class="djs-drag-group" style="pointer-events: none;" transform="matrix(1 0 0 1 215 0)"/><g class="djs-drag-group" style="pointer-events: none;" transform="matrix(1 0 0 1 189 0)"/><g class="djs-drag-group" style="pointer-events: none;" transform="matrix(1 0 0 1 37 110)"/><g class="djs-drag-group" style="pointer-events: none;" transform="matrix(1 0 0 1 20 -4)"/><g class="djs-drag-group" style="pointer-events: none;" transform="matrix(1 0 0 1 112 0)"/><g class="djs-drag-group" style="pointer-events: none;" transform="matrix(1 0 0 1 101 0)"/><g class="djs-drag-group" style="pointer-events: none;" transform="matrix(1 0 0 1 0 0)"/><g class="djs-drag-group" style="pointer-events: none;" transform="matrix(1 0 0 1 4 48)"/><g class="djs-drag-group" style="pointer-events: none;" transform="matrix(1 0 0 1 0 48)"/><g class="djs-drag-group" style="pointer-events: none;" transform="matrix(1 0 0 1 0 0)"/><g class="djs-drag-group" style="pointer-events: none;" transform="matrix(1 0 0 1 60 0)"/><g class="djs-drag-group" style="pointer-events: none;" transform="matrix(1 0 0 1 13 0)"/><g class="djs-drag-group" style="pointer-events: none;" transform="matrix(1 0 0 1 -8 -1)"/><g class="djs-drag-group" style="pointer-events: none;" transform="matrix(1 0 0 1 -2 -16)"/><g class="djs-drag-group" style="pointer-events: none;" transform="matrix(1 0 0 1 33 33)"/><g class="djs-drag-group" style="pointer-events: none;" transform="matrix(1 0 0 1 0 57)"/><g class="djs-drag-group" style="pointer-events: none;" transform="matrix(1 0 0 1 15 57)"/><g class="djs-drag-group" style="pointer-events: none;" transform="matrix(1 0 0 1 15 59)"/><g class="djs-drag-group" style="pointer-events: none;" transform="matrix(1 0 0 1 15 23)"/><g class="djs-drag-group" style="pointer-events: none;" transform="matrix(1 0 0 1 217 0)"/><g class="djs-drag-group" style="pointer-events: none;" transform="matrix(1 0 0 1 196 0)"/><g class="djs-drag-group" style="pointer-events: none;" transform="matrix(1 0 0 1 52 -23)"/><g class="djs-drag-group" style="pointer-events: none;" transform="matrix(1 0 0 1 152 0)"/><g class="djs-drag-group" style="pointer-events: none;" transform="matrix(1 0 0 1 120 0)"/><g class="djs-drag-group" style="pointer-events: none;" transform="matrix(1 0 0 1 92 0)"/><g class="djs-drag-group" style="pointer-events: none;" transform="matrix(1 0 0 1 92 94)"/><g class="djs-drag-group" style="pointer-events: none;" transform="matrix(1 0 0 1 101 37)"/><g class="djs-drag-group" style="pointer-events: none;" transform="matrix(1 0 0 1 0 37)"/><g class="djs-drag-group" style="pointer-events: none;" transform="matrix(1 0 0 1 101 15)"/><g class="djs-drag-group" style="pointer-events: none;" transform="matrix(1 0 0 1 49 12)"/><g class="djs-drag-group" style="pointer-events: none;" transform="matrix(1 0 0 1 0 -12)"/><g class="djs-drag-group" style="pointer-events: none;" transform="matrix(1 0 0 1 40 88)"/><g class="djs-drag-group" style="pointer-events: none;" transform="matrix(1 0 0 1 192 32)"/></svg>